HIERARCHY
ROOT Hips
{
    OFFSET 0.000000 0.000000 0.000000
    CHANNELS 6 Xposition Yposition Zposition Zrotation Xrotation Yrotation
    JOINT Spine
    {
        OFFSET -0.000000 7.246840 0.000000
        CHANNELS 3 Zrotation Xrotation Yrotation
        JOINT Spine1
        {
            OFFSET -0.000000 20.289354 0.000000
            CHANNELS 3 Zrotation Xrotation Yrotation
            JOINT Neck
            {
                OFFSET -0.000000 20.206032 1.836912
                CHANNELS 3 Zrotation Xrotation Yrotation
                JOINT Head
                {
                    OFFSET -0.000000 12.372654 -1.767522
                    CHANNELS 3 Zrotation Xrotation Yrotation
                    End Site
                    {
                        OFFSET -0.000000 22.094025 0.000000
                    }
                }
            }
            JOINT LeftShoulder
            {
                OFFSET 3.465871 17.201674 -0.568930
                CHANNELS 3 Zrotation Xrotation Yrotation
                JOINT LeftArm
                {
                    OFFSET 14.070313 0.000000 0.000000
                    CHANNELS 3 Zrotation Xrotation Yrotation
                    JOINT LeftForeArm
                    {
                        OFFSET 26.549477 0.000000 0.000000
                        CHANNELS 3 Zrotation Xrotation Yrotation
                        JOINT LeftHand
                        {
                            OFFSET 18.880413 0.000000 0.000000
                            CHANNELS 3 Zrotation Xrotation Yrotation
                            End Site
                            {
                                OFFSET 13.256415 0.000000 0.000000
                            }
                        }
                    }
                }
            }
            JOINT RightShoulder
            {
                OFFSET -3.526370 17.201674 -0.568930
                CHANNELS 3 Zrotation Xrotation Yrotation
                JOINT RightArm
                {
                    OFFSET -14.070313 0.000000 0.000000
                    CHANNELS 3 Zrotation Xrotation Yrotation
                    JOINT RightForeArm
                    {
                        OFFSET -26.549477 0.000000 0.000000
                        CHANNELS 3 Zrotation Xrotation Yrotation
                        JOINT RightHand
                        {
                            OFFSET -18.880413 0.000000 0.000000
                            CHANNELS 3 Zrotation Xrotation Yrotation
                            End Site
                            {
                                OFFSET -13.256415 0.000000 0.000000
                            }
                        }
                    }
                }
            }
        }
    }
    JOINT LeftUpLeg
    {
        OFFSET 8.837609 0.000000 0.000000
        CHANNELS 3 Zrotation Xrotation Yrotation
        JOINT LeftLeg
        {
            OFFSET -0.000000 -41.345005 0.000000
            CHANNELS 3 Zrotation Xrotation Yrotation
            JOINT LeftFoot
            {
                OFFSET -0.000000 -35.500874 0.000000
                CHANNELS 3 Zrotation Xrotation Yrotation
                JOINT LeftToeBase
                {
                    OFFSET -0.000000 -5.744446 13.256415
                    CHANNELS 3 Zrotation Xrotation Yrotation
                    End Site
                    {
                        OFFSET -0.000000 0.000000 3.535044
                    }
                }
            }
        }
    }
    JOINT RightUpLeg
    {
        OFFSET -8.837609 0.000000 0.000000
        CHANNELS 3 Zrotation Xrotation Yrotation
        JOINT RightLeg
        {
            OFFSET -0.000000 -41.345005 0.000000
            CHANNELS 3 Zrotation Xrotation Yrotation
            JOINT RightFoot
            {
                OFFSET -0.000000 -35.500874 0.000000
                CHANNELS 3 Zrotation Xrotation Yrotation
                JOINT RightToeBase
                {
                    OFFSET -0.000000 -5.744446 13.256415
                    CHANNELS 3 Zrotation Xrotation Yrotation
                    End Site
                    {
                        OFFSET -0.000000 0.000000 3.535044
                    }
                }
            }
        }
    }
}
MOTION
Frames:    5
Frame Time:    0.010000
13.618280    82.453705    13.792445    3.289473    1.956573    0.069668    -4.668548    -14.382549    -1.702627    1.622877    3.417917    -1.161718    0.887709    32.011284    -2.982350    2.084483    -10.626049    -2.478890    19.139744    2.267832    6.865563    -37.495564    8.333303    -5.471045    8.431449    -11.036881    -8.604076    -32.180161    -8.462426    -6.845112    -14.462475    1.839097    11.413072    22.221422    2.622172    7.065653    -5.465850    -7.681587    7.971046    13.861682    -5.539246    14.528008    -2.625129    8.032452    -0.654428    -1.903318    -8.907824    -8.045299    3.311006    0.615631    1.878318    0.053223    0.567932    -0.074257    -8.399445    6.119546    0.959929    7.099796    -5.994697    4.083527    -0.256535    -2.954728    -10.475972    -0.153667    -2.682363    0.283899    
13.621223    82.455215    13.794449    3.291759    1.946127    0.035612    -4.654893    -14.374304    -1.683955    1.610264    3.402682    -1.144542    0.847222    32.015160    -2.962904    2.120081    -10.616010    -2.456865    19.129465    2.270134    6.876482    -37.490280    8.277191    -5.482594    8.430948    -11.015064    -8.575937    -32.097450    -8.448750    -6.841942    -14.468377    1.821391    11.437146    22.235498    2.616191    7.037292    -5.470146    -7.692759    7.991035    13.874435    -5.545989    14.540936    -2.636358    8.035825    -0.650996    -1.886767    -8.887297    -8.036323    3.301184    0.597076    1.902038    0.047306    0.562537    -0.066003    -8.405863    6.112964    0.945244    7.103543    -5.969660    4.122071    -0.244375    -2.952654    -10.455667    -0.153523    -2.684033    0.283639    
13.621298    82.456375    13.794979    3.292118    1.935236    0.004344    -4.643984    -14.359882    -1.666846    1.598847    3.379027    -1.128678    0.837546    32.025063    -2.950411    2.113236    -10.611622    -2.446976    19.140150    2.262326    6.873435    -37.513676    8.225798    -5.466810    8.440950    -10.996634    -8.561021    -32.016541    -8.436710    -6.838480    -14.463358    1.830306    11.450734    22.231493    2.584547    7.034268    -5.460355    -7.711241    8.001800    13.885956    -5.560784    14.560814    -2.640440    8.037354    -0.643371    -1.913331    -8.852799    -7.911847    3.245081    0.584681    1.804138    0.046778    0.472559    -0.065302    -8.406002    6.110930    0.964683    7.102500    -5.958930    4.123838    -0.243408    -2.966540    -10.462560    -0.164840    -2.658787    0.304459    
13.620827    82.457039    13.796189    3.291595    1.926745    -0.014162    -4.641414    -14.354196    -1.653546    1.597862    3.371745    -1.115790    0.833225    32.013000    -2.939908    2.099984    -10.587565    -2.440350    19.142881    2.240812    6.858504    -37.527561    8.184167    -5.438185    8.454923    -11.009395    -8.548272    -32.004265    -8.442882    -6.864310    -14.455562    1.840562    11.449032    22.223515    2.543305    7.039891    -5.458662    -7.720065    8.017688    13.886061    -5.570348    14.549809    -2.639601    8.040426    -0.659596    -1.871534    -8.851821    -8.064210    3.283824    0.573808    1.959684    0.038910    0.551054    -0.054293    -8.405312    6.111703    0.967512    7.096807    -5.953304    4.116488    -0.243056    -2.959831    -10.424141    -0.152358    -2.651428    0.281383    
13.623097    82.458046    13.797363    3.293842    1.917628    -0.036771    -4.637889    -14.347918    -1.641935    1.593998    3.370595    -1.104794    0.814778    32.001225    -2.923719    2.104658    -10.583068    -2.425503    19.161316    2.215644    6.852950    -37.556797    8.176764    -5.397181    8.460157    -11.063437    -8.543391    -31.987759    -8.483691    -6.915874    -14.450455    1.838400    11.446050    22.212135    2.531502    7.054895    -5.440190    -7.725364    8.021874    13.812354    -5.586784    14.545585    -2.650706    8.043546    -0.638976    -1.885046    -8.824042    -7.965910    3.301007    0.558990    1.883096    0.028182    0.554577    -0.039322    -8.410168    6.113403    0.972603    7.097167    -5.948514    4.125296    -0.240601    -2.964245    -10.422435    -0.142778    -2.635469    0.263642    
